<svg width="64" height="104" viewBox="0 0 64 104" fill="none" xmlns="http://www.w3.org/2000/svg">
<path d="M31.4998 44.6998C33.9504 44.6998 36.3006 43.7263 38.0334 41.9935C39.7663 40.2606 40.7398 37.9104 40.7398 35.4598V27.5398C40.7398 25.0892 39.7663 22.739 38.0334 21.0061C36.3006 19.2733 33.9504 18.2998 31.4998 18.2998C29.0492 18.2998 26.6989 19.2733 24.9661 21.0061C23.2333 22.739 22.2598 25.0892 22.2598 27.5398V35.4598C22.2598 37.9104 23.2333 40.2606 24.9661 41.9935C26.6989 43.7263 29.0492 44.6998 31.4998 44.6998ZM23.5798 27.5398C23.5798 25.4393 24.4142 23.4248 25.8995 21.9395C27.3848 20.4542 29.3993 19.6198 31.4998 19.6198C33.6003 19.6198 35.6148 20.4542 37.1001 21.9395C38.5853 23.4248 39.4198 25.4393 39.4198 27.5398V35.4598C39.4198 37.5603 38.5853 39.5748 37.1001 41.0601C35.6148 42.5454 33.6003 43.3798 31.4998 43.3798C29.3993 43.3798 27.3848 42.5454 25.8995 41.0601C24.4142 39.5748 23.5798 37.5603 23.5798 35.4598V27.5398Z" fill="white"/>
<path d="M31.4999 28.8596C32.022 28.8596 32.5324 28.7048 32.9666 28.4147C33.4007 28.1246 33.7391 27.7123 33.9389 27.2299C34.1387 26.7475 34.191 26.2167 34.0891 25.7046C33.9873 25.1924 33.7358 24.722 33.3666 24.3528C32.9974 23.9836 32.527 23.7322 32.0149 23.6303C31.5028 23.5285 30.972 23.5807 30.4896 23.7805C30.0072 23.9804 29.5949 24.3187 29.3048 24.7529C29.0147 25.187 28.8599 25.6974 28.8599 26.2196C28.8599 26.9198 29.138 27.5913 29.6331 28.0864C30.1282 28.5814 30.7997 28.8596 31.4999 28.8596ZM31.4999 24.8996C31.7609 24.8996 32.0161 24.977 32.2332 25.1221C32.4503 25.2671 32.6195 25.4732 32.7194 25.7144C32.8193 25.9556 32.8454 26.2211 32.7945 26.4771C32.7436 26.7332 32.6179 26.9684 32.4332 27.153C32.2486 27.3376 32.0134 27.4633 31.7574 27.5142C31.5013 27.5652 31.2359 27.539 30.9947 27.4391C30.7535 27.3392 30.5474 27.17 30.4023 26.9529C30.2573 26.7359 30.1799 26.4807 30.1799 26.2196C30.1799 25.8695 30.3189 25.5338 30.5665 25.2862C30.814 25.0387 31.1498 24.8996 31.4999 24.8996Z" fill="white"/>
<rect x="63.5" y="63.5" width="63" height="63" rx="31.5" transform="rotate(-180 63.5 63.5)" stroke="white"/>
<path d="M31.6464 103.354C31.8417 103.549 32.1583 103.549 32.3536 103.354L35.5355 100.172C35.7308 99.9763 35.7308 99.6597 35.5355 99.4645C35.3403 99.2692 35.0237 99.2692 34.8284 99.4645L32 102.293L29.1716 99.4645C28.9763 99.2692 28.6597 99.2692 28.4645 99.4645C28.2692 99.6597 28.2692 99.9763 28.4645 100.172L31.6464 103.354ZM31.5 72L31.5 103L32.5 103L32.5 72L31.5 72Z" fill="white"/>
</svg>
