<svg width="24" height="38" viewBox="0 0 24 38" fill="none" xmlns="http://www.w3.org/2000/svg">
<path d="M11.9704 0C5.80708 0 0.792969 5.01411 0.792969 11.1775V26.8225C0.792969 32.9859 5.80708 38 11.9704 38C18.1338 38 23.1479 32.9859 23.1479 26.8225V11.1775C23.1479 5.01411 18.1338 0 11.9704 0ZM20.868 26.8225C20.868 31.7285 16.8764 35.7201 11.9704 35.7201C7.06445 35.7201 3.07288 31.7285 3.07288 26.8225V11.1775C3.07288 6.27148 7.06445 2.27991 11.9704 2.27991C16.8764 2.27991 20.868 6.27148 20.868 11.1775V26.8225Z" fill="white"/>
<path d="M11.9708 7.55908C11.3411 7.55908 10.8308 8.06934 10.8308 8.69904V13.946C10.8308 14.5754 11.3411 15.0859 11.9708 15.0859C12.6002 15.0859 13.1107 14.5754 13.1107 13.946V8.69904C13.1107 8.06934 12.6005 7.55908 11.9708 7.55908Z" fill="white"/>
</svg>
