<svg width="297" height="236" viewBox="0 0 297 236" fill="none" xmlns="http://www.w3.org/2000/svg">
<path d="M296.937 0.519501L300.738 1.76617L302.459 -3.4805H296.937V0.519501ZM219.698 236V240H222.596L223.499 237.247L219.698 236ZM202.352 236L198.554 237.255L199.461 240H202.352V236ZM148.514 73.0128L152.312 71.7582L148.543 60.3465L144.722 71.741L148.514 73.0128ZM93.8578 236V240H96.7353L97.6502 237.272L93.8578 236ZM76.6754 236L72.87 237.232L73.7662 240H76.6754V236ZM0.418328 0.519501V-3.4805H-5.08153L-3.38711 1.75184L0.418328 0.519501ZM30.6921 0.519501L34.5107 -0.671326L33.6347 -3.4805H30.6921V0.519501ZM94.0214 203.599L90.2028 204.79L93.8777 216.574L97.8127 204.874L94.0214 203.599ZM142.95 58.1214L146.742 59.3965L147.166 58.1343L146.749 56.8694L142.95 58.1214ZM123.968 0.519501V-3.4805H118.438L120.169 1.77145L123.968 0.519501ZM154.078 0.519501L157.886 -0.704834L156.994 -3.4805H154.078V0.519501ZM219.371 203.599L215.563 204.823L219.281 216.388L223.161 204.877L219.371 203.599ZM224.28 189.035L228.071 190.312L228.079 190.287L228.088 190.261L224.28 189.035ZM284.991 0.519501V-3.4805H282.077L281.184 -0.70668L284.991 0.519501ZM293.136 -0.727173L215.898 234.753L223.499 237.247L300.738 1.76617L293.136 -0.727173ZM219.698 232H202.352V240H219.698V232ZM206.15 234.745L152.312 71.7582L144.716 74.2674L198.554 237.255L206.15 234.745ZM144.722 71.741L90.0653 234.728L97.6502 237.272L152.307 74.2846L144.722 71.741ZM93.8578 232H76.6754V240H93.8578V232ZM80.4808 234.768L4.22376 -0.712837L-3.38711 1.75184L72.87 237.232L80.4808 234.768ZM0.418328 4.5195H30.6921V-3.4805H0.418328V4.5195ZM26.8734 1.71032L90.2028 204.79L97.84 202.408L34.5107 -0.671326L26.8734 1.71032ZM97.8127 204.874L146.742 59.3965L139.159 56.8463L90.2301 202.324L97.8127 204.874ZM146.749 56.8694L127.767 -0.732452L120.169 1.77145L139.151 59.3734L146.749 56.8694ZM123.968 4.5195H154.078V-3.4805H123.968V4.5195ZM150.27 1.74384L215.563 204.823L223.179 202.375L157.886 -0.704834L150.27 1.74384ZM223.161 204.877L228.071 190.312L220.49 187.757L215.581 202.321L223.161 204.877ZM228.088 190.261L288.799 1.74567L281.184 -0.70668L220.473 187.809L228.088 190.261ZM284.991 4.5195H296.937V-3.4805H284.991V4.5195Z" fill="#D8BDAF"/>
</svg>
