<svg width="515" height="252" viewBox="0 0 515 252" fill="none" xmlns="http://www.w3.org/2000/svg">
<path fill-rule="evenodd" clip-rule="evenodd" d="M147.158 32.5197C139.238 27.3791 130.69 23.3273 121.514 20.3642C111.041 16.8732 99.9131 15.1276 88.1309 15.1276C80.9307 15.1276 74.3304 16.1095 68.3302 18.0732C62.33 20.0369 57.1481 22.8188 52.7843 26.4189C48.4205 29.9099 44.984 34.1101 42.4748 39.0193C40.0748 43.8195 38.8747 49.1651 38.8747 55.0562C38.8747 61.1655 40.4566 66.7293 43.6203 71.7477C46.7841 76.6569 51.0388 81.2935 56.3844 85.6572C61.73 89.9119 67.9484 93.9484 75.0396 97.7667C82.2398 101.585 89.8219 105.349 97.7858 109.058C108.259 113.967 117.586 118.931 125.769 123.949C134.06 128.968 141.042 134.368 146.715 140.15C152.497 145.932 156.915 152.259 159.97 159.132C163.024 165.896 164.552 173.587 164.552 182.206C164.552 192.024 162.533 200.97 158.497 209.043C154.46 217.007 148.787 223.825 141.478 229.498C134.278 235.062 125.659 239.371 115.623 242.426C105.586 245.481 94.622 247.008 82.7307 247.008C76.076 247.008 69.3121 246.299 62.4391 244.881C55.5662 243.572 48.8023 241.771 42.1476 239.48C35.4928 237.08 29.0562 234.299 22.8378 231.135C16.6194 227.862 10.7829 224.425 5.32817 220.825L10.7283 211.334C11.8181 212.069 12.9373 212.798 14.086 213.521C17.8818 215.911 21.9992 218.237 26.438 220.498C32.22 223.444 38.2202 226.062 44.4385 228.353C50.766 230.644 57.2026 232.498 63.7483 233.917C70.403 235.226 76.8396 235.88 83.058 235.88C91.7856 235.88 99.6404 234.735 106.622 232.444C113.604 230.153 119.55 226.989 124.459 222.953C129.369 218.807 133.132 213.898 135.751 208.225C138.478 202.443 139.842 196.115 139.842 189.242C139.842 183.133 138.587 177.515 136.078 172.387C133.569 167.26 129.86 162.405 124.95 157.823C120.041 153.241 113.986 148.823 106.786 144.568C99.5858 140.314 91.3492 136.059 82.0762 131.804C73.2395 127.659 64.7301 123.349 56.548 118.877C48.475 114.295 41.2748 109.276 34.9473 103.821C28.7289 98.2577 23.7106 92.0938 19.8923 85.33C16.1831 78.457 14.3285 70.6567 14.3285 61.9292C14.3285 53.0925 16.1285 45.1286 19.7286 38.0375C23.4379 30.8372 28.5653 24.728 35.111 19.7096C41.7657 14.6913 49.6751 10.8184 58.839 8.09104C68.1121 5.36368 78.3669 4 89.6037 4C101.822 4 113.659 5.90916 125.114 9.72746C136.678 13.5458 146.987 18.7278 156.042 25.2734L150.478 34.7646C149.384 33.9946 148.277 33.2463 147.158 32.5197ZM121.899 219.879C117.432 223.548 111.949 226.486 105.375 228.643C98.8632 230.78 91.4392 231.88 83.058 231.88C77.1327 231.88 70.9679 231.258 64.5585 229.999C58.2047 228.621 51.9558 226.82 45.8109 224.596C39.741 222.359 33.889 219.805 28.2537 216.934C22.5963 214.052 17.503 211.078 12.9649 208.018L9.38627 205.604L0 222.101L3.1248 224.164C8.69744 227.842 14.6484 231.345 20.9748 234.674L20.9993 234.687L21.024 234.7C27.3924 237.94 33.9817 240.788 40.7905 243.243L40.8179 243.253L40.8455 243.263C47.67 245.612 54.6083 247.46 61.6596 248.804C68.7742 250.27 75.7994 251.008 82.7307 251.008C94.9649 251.008 106.327 249.436 116.787 246.253C127.218 243.078 136.286 238.565 143.924 232.664L143.931 232.658C151.69 226.636 157.751 219.362 162.065 210.852L162.07 210.842L162.075 210.832C166.413 202.156 168.552 192.59 168.552 182.206C168.552 173.115 166.94 164.853 163.62 157.497C160.352 150.148 155.646 143.428 149.557 137.336C143.614 131.281 136.362 125.687 127.849 120.533C119.52 115.425 110.061 110.394 99.4835 105.436L99.4746 105.432C91.5727 101.752 84.0566 98.0206 76.9252 94.2391C70.0207 90.5206 64.0178 86.6183 58.8947 82.5429C53.8319 78.4072 49.8884 74.0855 46.9932 69.5974C44.2518 65.242 42.8747 60.4272 42.8747 55.0562C42.8747 49.7312 43.9538 45.0123 46.0446 40.8242C48.2914 36.4334 51.3604 32.6806 55.2831 29.5424L55.3066 29.5236L55.3298 29.5044C59.2661 26.257 63.994 23.7011 69.5744 21.8748C75.121 20.0595 81.2949 19.1276 88.1309 19.1276C99.5122 19.1276 110.21 20.8127 120.249 24.1589L120.267 24.1649L120.285 24.1706C130.382 27.4314 139.675 32.0531 148.176 38.0359L151.731 40.5373L161.331 24.1609L158.386 22.0317C148.971 15.2258 138.289 9.8655 126.371 5.93021C114.506 1.97599 102.244 0 89.6037 0C78.0454 0 67.4038 1.40258 57.7104 4.25356L57.698 4.25723C48.1432 7.10093 39.7899 11.1714 32.7026 16.5159L32.6899 16.5255L32.6772 16.5352C25.6719 21.906 20.1574 28.4707 16.1727 36.2057L16.1673 36.2162L16.162 36.2267C12.2465 43.9389 10.3285 52.5342 10.3285 61.9292C10.3285 71.2407 12.3124 79.7071 16.3722 87.2297L16.3903 87.2632L16.409 87.2963C20.4575 94.468 25.7603 100.969 32.2801 106.802L32.3076 106.827L32.3356 106.851C38.8807 112.494 46.2987 117.659 54.5736 122.355L54.6014 122.371L54.6293 122.386C62.8868 126.9 71.4697 131.247 80.3773 135.426L80.3926 135.433L80.4081 135.44C89.5817 139.649 97.6922 143.841 104.751 148.012C111.76 152.153 117.568 156.405 122.221 160.747C126.835 165.054 130.224 169.526 132.485 174.146C134.708 178.688 135.842 183.699 135.842 189.242C135.842 195.57 134.59 201.309 132.133 206.518L132.126 206.534L132.119 206.549C129.756 211.667 126.364 216.104 121.899 219.879ZM202.117 3.60012H237.772V227.953H342.83V247.081H202.117V3.60012ZM233.772 231.953V7.60012H206.117V243.081H338.83V231.953H233.772ZM493.424 32.5197C485.504 27.3791 476.956 23.3273 467.78 20.3642C457.307 16.8732 446.179 15.1276 434.397 15.1276C427.197 15.1276 420.596 16.1095 414.596 18.0732C408.596 20.0369 403.414 22.8188 399.05 26.4189C394.686 29.9099 391.25 34.1101 388.741 39.0193C386.341 43.8195 385.141 49.1651 385.141 55.0562C385.141 61.1655 386.723 66.7293 389.886 71.7477C393.05 76.6569 397.305 81.2935 402.65 85.6572C407.996 89.9119 414.214 93.9484 421.306 97.7667C428.506 101.585 436.088 105.349 444.052 109.058C454.525 113.967 463.852 118.931 472.034 123.949C480.326 128.968 487.308 134.368 492.981 140.15C498.763 145.932 503.181 152.259 506.236 159.132C509.29 165.896 510.818 173.587 510.818 182.206C510.818 192.024 508.799 200.97 504.763 209.043C500.726 217.007 495.053 223.825 487.744 229.498C480.544 235.062 471.925 239.371 461.889 242.426C451.852 245.481 440.888 247.008 428.997 247.008C422.342 247.008 415.578 246.299 408.705 244.881C401.832 243.572 395.068 241.771 388.414 239.48C381.759 237.08 375.322 234.299 369.104 231.135C362.885 227.862 357.049 224.425 351.594 220.825L356.994 211.334C358.084 212.069 359.203 212.798 360.352 213.521C364.148 215.911 368.265 218.237 372.704 220.498C378.486 223.444 384.486 226.062 390.705 228.353C397.032 230.644 403.469 232.498 410.014 233.917C416.669 235.226 423.106 235.88 429.324 235.88C438.052 235.88 445.906 234.735 452.888 232.444C459.87 230.153 465.816 226.989 470.725 222.953C475.635 218.807 479.398 213.898 482.017 208.225C484.744 202.443 486.108 196.115 486.108 189.242C486.108 183.133 484.853 177.515 482.344 172.387C479.835 167.26 476.126 162.405 471.216 157.823C466.307 153.241 460.252 148.823 453.052 144.568C445.852 140.314 437.615 136.059 428.342 131.804C419.505 127.659 410.996 123.349 402.814 118.877C394.741 114.295 387.541 109.276 381.213 103.821C374.995 98.2577 369.977 92.0938 366.158 85.33C362.449 78.457 360.594 70.6567 360.594 61.9292C360.594 53.0925 362.395 45.1286 365.995 38.0375C369.704 30.8372 374.831 24.728 381.377 19.7096C388.032 14.6913 395.941 10.8184 405.105 8.09104C414.378 5.36368 424.633 4 435.87 4C448.088 4 459.925 5.90916 471.38 9.72746C482.944 13.5458 493.253 18.7278 502.308 25.2734L496.744 34.7646C495.65 33.9946 494.543 33.2462 493.424 32.5197ZM472.637 5.93021C460.772 1.97599 448.51 0 435.87 0C424.311 0 413.67 1.40258 403.976 4.25356L403.964 4.25723C394.409 7.10093 386.056 11.1714 378.969 16.5159L378.956 16.5255L378.943 16.5352C371.938 21.906 366.423 28.4707 362.439 36.2057L362.433 36.2162L362.428 36.2267C358.513 43.9389 356.594 52.5342 356.594 61.9292C356.594 71.2407 358.578 79.7071 362.638 87.2297L362.656 87.2632L362.675 87.2963C366.724 94.468 372.026 100.969 378.546 106.802L378.574 106.827L378.602 106.851C385.147 112.494 392.565 117.659 400.84 122.355L400.867 122.371L400.895 122.386C409.153 126.9 417.736 131.247 426.643 135.426L426.659 135.433L426.674 135.44C435.848 139.649 443.958 143.841 451.017 148.012C458.026 152.153 463.834 156.405 468.487 160.747C473.101 165.054 476.49 169.526 478.751 174.146C480.974 178.688 482.108 183.699 482.108 189.242C482.108 195.57 480.856 201.309 478.399 206.518L478.392 206.534L478.385 206.549C476.023 211.667 472.631 216.103 468.166 219.879C463.698 223.547 458.215 226.486 451.641 228.643C445.129 230.78 437.705 231.88 429.324 231.88C423.399 231.88 417.234 231.258 410.824 229.999C404.471 228.621 398.222 226.82 392.077 224.596C386.007 222.359 380.155 219.805 374.52 216.934C368.862 214.052 363.769 211.078 359.231 208.018L355.652 205.604L346.266 222.101L349.391 224.164C354.963 227.842 360.914 231.345 367.241 234.674L367.265 234.687L367.29 234.7C373.658 237.94 380.248 240.788 387.056 243.243L387.084 243.253L387.112 243.263C393.936 245.612 400.874 247.459 407.925 248.804C415.04 250.27 422.065 251.008 428.997 251.008C441.231 251.008 452.593 249.436 463.053 246.253C473.484 243.078 482.552 238.565 490.19 232.664L490.197 232.658C497.956 226.636 504.017 219.362 508.331 210.852L508.336 210.842L508.341 210.832C512.679 202.156 514.818 192.59 514.818 182.206C514.818 173.115 513.206 164.853 509.886 157.497C506.618 150.148 501.912 143.427 495.822 137.335C489.88 131.28 482.629 125.687 474.116 120.534C465.787 115.426 456.327 110.394 445.75 105.436L445.741 105.432C437.838 101.751 430.322 98.02 423.19 94.2383C416.286 90.5202 410.284 86.6184 405.162 82.5436C400.098 78.4072 396.154 74.0846 393.258 69.5956C390.517 65.2407 389.141 60.4265 389.141 55.0562C389.141 49.7315 390.22 45.0127 392.31 40.8247C394.557 36.4338 397.626 32.6807 401.549 29.5424L401.573 29.5236L401.596 29.5044C405.532 26.257 410.26 23.7011 415.84 21.8748C421.387 20.0595 427.561 19.1276 434.397 19.1276C445.778 19.1276 456.476 20.8127 466.515 24.1589L466.533 24.1649L466.551 24.1706C476.648 27.4314 485.941 32.0531 494.442 38.0359L497.997 40.5373L507.597 24.1609L504.652 22.0317C495.237 15.2258 484.555 9.8655 472.637 5.93021Z" fill="#D8BDAF"/>
</svg>
