<svg width="506" height="244" viewBox="0 0 506 244" fill="none" xmlns="http://www.w3.org/2000/svg">
<path d="M77.8938 243.927C71.239 243.927 64.4752 243.218 57.6022 241.8C50.7292 240.491 43.9654 238.691 37.3106 236.4C30.6559 234 24.2193 231.218 18.0009 228.054C11.7825 224.781 5.94595 221.345 0.491222 217.745L5.8914 208.253C10.5825 211.417 15.819 214.472 21.601 217.417C27.383 220.363 33.3832 222.981 39.6016 225.272C45.9291 227.563 52.3657 229.418 58.9113 230.836C65.5661 232.145 72.0027 232.8 78.2211 232.8C86.9486 232.8 94.8034 231.654 101.785 229.363C108.768 227.072 114.713 223.909 119.622 219.872C124.532 215.726 128.295 210.817 130.914 205.144C133.641 199.362 135.005 193.035 135.005 186.162C135.005 180.053 133.75 174.434 131.241 169.307C128.732 164.179 125.023 159.325 120.113 154.743C115.204 150.161 109.149 145.742 101.949 141.488C94.7489 137.233 86.5122 132.978 77.2392 128.724C68.4026 124.578 59.8932 120.269 51.7111 115.796C43.6381 111.214 36.4379 106.196 30.1104 100.741C23.892 95.177 18.8736 89.0132 15.0553 82.2493C11.3461 75.3764 9.49152 67.5761 9.49152 58.8486C9.49152 50.0119 11.2916 42.048 14.8917 34.9569C18.6009 27.7566 23.7284 21.6473 30.274 16.629C36.9288 11.6106 44.8381 7.73779 54.0021 5.01042C63.2751 2.28306 73.53 0.91938 84.7667 0.91938C96.9853 0.91938 108.822 2.82853 120.277 6.64684C131.841 10.4651 142.15 15.6471 151.205 22.1928L145.641 31.684C136.805 25.4656 127.15 20.6655 116.677 17.2836C106.204 13.7925 95.0762 12.047 83.294 12.047C76.0937 12.047 69.4935 13.0289 63.4933 14.9926C57.4931 16.9563 52.3111 19.7382 47.9473 23.3383C43.5836 26.8293 40.1471 31.0295 37.6379 35.9387C35.2378 40.7389 34.0378 46.0845 34.0378 51.9756C34.0378 58.0849 35.6197 63.6487 38.7834 68.6671C41.9471 73.5763 46.2018 78.2128 51.5475 82.5766C56.8931 86.8313 63.1115 90.8678 70.2026 94.6861C77.4029 98.5044 84.9849 102.268 92.9488 105.977C103.422 110.887 112.749 115.85 120.932 120.869C129.223 125.887 136.205 131.287 141.878 137.069C147.66 142.851 152.078 149.179 155.133 156.052C158.187 162.816 159.715 170.507 159.715 179.125C159.715 188.944 157.696 197.89 153.66 205.963C149.623 213.926 143.951 220.745 136.641 226.418C129.441 231.982 120.822 236.291 110.786 239.345C100.749 242.4 89.7851 243.927 77.8938 243.927ZM201.28 4.5195H228.935V228.872H333.993V240H201.28V4.5195ZM424.16 243.927C417.505 243.927 410.741 243.218 403.868 241.8C396.995 240.491 390.231 238.691 383.577 236.4C376.922 234 370.485 231.218 364.267 228.054C358.048 224.781 352.212 221.345 346.757 217.745L352.157 208.253C356.848 211.417 362.085 214.472 367.867 217.417C373.649 220.363 379.649 222.981 385.868 225.272C392.195 227.563 398.632 229.418 405.177 230.836C411.832 232.145 418.269 232.8 424.487 232.8C433.215 232.8 441.069 231.654 448.051 229.363C455.034 227.072 460.979 223.909 465.888 219.872C470.798 215.726 474.561 210.817 477.18 205.144C479.907 199.362 481.271 193.035 481.271 186.162C481.271 180.053 480.016 174.434 477.507 169.307C474.998 164.179 471.289 159.325 466.379 154.743C461.47 150.161 455.415 145.742 448.215 141.488C441.015 137.233 432.778 132.978 423.505 128.724C414.669 124.578 406.159 120.269 397.977 115.796C389.904 111.214 382.704 106.196 376.376 100.741C370.158 95.177 365.14 89.0132 361.321 82.2493C357.612 75.3764 355.758 67.5761 355.758 58.8486C355.758 50.0119 357.558 42.048 361.158 34.9569C364.867 27.7566 369.994 21.6473 376.54 16.629C383.195 11.6106 391.104 7.73779 400.268 5.01042C409.541 2.28306 419.796 0.91938 431.033 0.91938C443.251 0.91938 455.088 2.82853 466.543 6.64684C478.107 10.4651 488.416 15.6471 497.471 22.1928L491.907 31.684C483.071 25.4656 473.416 20.6655 462.943 17.2836C452.47 13.7925 441.342 12.047 429.56 12.047C422.36 12.047 415.759 13.0289 409.759 14.9926C403.759 16.9563 398.577 19.7382 394.213 23.3383C389.85 26.8293 386.413 31.0295 383.904 35.9387C381.504 40.7389 380.304 46.0845 380.304 51.9756C380.304 58.0849 381.886 63.6487 385.049 68.6671C388.213 73.5763 392.468 78.2128 397.813 82.5766C403.159 86.8313 409.377 90.8678 416.469 94.6861C423.669 98.5044 431.251 102.268 439.215 105.977C449.688 110.887 459.015 115.85 467.198 120.869C475.489 125.887 482.471 131.287 488.144 137.069C493.926 142.851 498.344 149.179 501.399 156.052C504.453 162.816 505.981 170.507 505.981 179.125C505.981 188.944 503.962 197.89 499.926 205.963C495.889 213.926 490.216 220.745 482.907 226.418C475.707 231.982 467.088 236.291 457.052 239.345C447.015 242.4 436.051 243.927 424.16 243.927Z" fill="#D8BDAF"/>
</svg>
