<svg width="156" height="120" viewBox="0 0 156 120" fill="none" xmlns="http://www.w3.org/2000/svg">
<path fill-rule="evenodd" clip-rule="evenodd" d="M4.38826 91.0714V99.8965H3.04301V91.0714H0V89.9105H7.40899V91.0714H4.38826ZM18.0717 99.8965V95.3299H12.5691V99.8965H11.232V89.9105H12.5691V94.1529H18.0717V89.9105H19.4291V99.8965H18.0717ZM24.7675 99.8965V89.9105H31.7369V91.0855H26.0581V94.1691H30.9913V95.3299H26.0581V98.7356H31.905V99.8965H24.7675ZM46.5771 94.5358C47.738 94.5358 48.7855 94.1954 48.7855 92.8258C48.7855 91.7075 48.0521 91.0146 46.7635 91.0146H43.599V94.5358H46.5771ZM48.9678 99.8965L46.2064 95.6521H43.599V99.8965H42.2821V89.9105H46.8365C48.7733 89.9105 50.1185 90.8141 50.1185 92.8258C50.1185 94.0414 49.5898 95.2712 47.7401 95.569L50.5764 99.8965H48.9718H48.9678ZM54.9383 99.8965V89.9105H61.9077V91.0855H56.2289V94.1691H61.1601V95.3299H56.2289V98.7356H62.0758V99.8965H54.9383ZM67.2319 96.5172C67.2461 96.9122 67.3332 99.1064 70.1392 99.1064C70.9861 99.1064 72.6636 98.7822 72.6636 97.1087C72.6636 95.9945 71.8289 95.6703 70.743 95.4556L69.8252 95.2732C67.55 94.8174 66.2716 94.0982 66.2716 92.4288C66.2716 91.6386 66.6302 90.9741 67.2319 90.4777C68.2044 89.6856 69.3673 89.6572 69.8556 89.6572C70.8564 89.6572 71.8289 89.7849 72.6494 90.4068C73.5388 91.0713 73.7657 91.7906 73.9379 92.7266L72.5744 92.8076C72.5744 92.2464 72.2604 90.6905 69.969 90.6905C69.0087 90.6905 67.6635 91.0288 67.6635 92.2626C67.6635 93.2229 68.5347 93.5593 69.6834 93.8307L71.5311 94.2683C72.0051 94.3798 74.1081 94.8336 74.1081 97.0277C74.1081 97.4228 74.0534 98.3122 73.2653 99.078C72.7041 99.6169 71.7863 100.152 70.0683 100.152C69.7381 100.152 68.3624 100.136 67.3008 99.4589C65.9576 98.5978 65.828 97.125 65.7814 96.7015L67.2319 96.5172ZM78.5592 99.8965H79.9206V89.9105H78.5592V99.8965ZM86.4888 98.7356H88.8795C90.9743 98.7356 92.0339 97.2688 92.0339 94.9045C92.0339 92.7408 91.102 91.0835 88.8106 91.0835H86.4888V98.7356ZM89.1125 89.9105C91.5477 89.9105 93.4096 91.5941 93.4096 94.9146C93.4096 97.4066 92.3783 99.8985 88.7235 99.8985H85.099V89.9105H89.1125ZM98.043 99.8965V89.9105H105.012V91.0855H99.3335V94.1691H104.267V95.3299H99.3335V98.7356H105.18V99.8965H98.043ZM116.469 99.8965L110.924 91.7784C110.924 91.7784 111.054 99.7 111.054 99.8965H109.777V89.9105H111.054L116.528 97.9191C116.528 97.9191 116.469 90.2205 116.469 89.9105H117.689V99.8965H116.469ZM132.225 96.2761C131.883 97.8867 130.432 100.15 127.241 100.15C124.202 100.15 122.294 98.0285 122.294 94.9045C122.294 91.7906 124.2 89.6572 127.411 89.6572C129.816 89.6572 131.35 90.8019 132.025 92.7104L130.663 92.9818C130.307 91.8635 129.286 90.7168 127.397 90.7168C125.09 90.7168 123.785 92.4004 123.785 94.8316C123.785 97.6922 125.373 99.0314 127.411 99.0314C128.986 99.0314 130.432 98.1258 130.762 96.1059L132.225 96.2761ZM136.455 99.8965V89.9105H143.425V91.0855H137.746V94.1691H142.677V95.3299H137.746V98.7356H143.593V99.8965H136.455ZM148.749 96.5172C148.761 96.9122 148.848 99.1064 151.656 99.1064C152.503 99.1064 154.181 98.7822 154.181 97.1087C154.181 95.9945 153.346 95.6703 152.26 95.4556L151.342 95.2732C149.063 94.8174 147.789 94.0982 147.789 92.4288C147.789 91.6386 148.149 90.9741 148.749 90.4777C149.722 89.6856 150.884 89.6572 151.373 89.6572C152.374 89.6572 153.346 89.7849 154.167 90.4068C155.056 91.0713 155.283 91.7906 155.455 92.7266L154.092 92.8076C154.092 92.2464 153.778 90.6905 151.486 90.6905C150.526 90.6905 149.181 91.0288 149.181 92.2626C149.181 93.2229 150.052 93.5593 151.2 93.8307L153.048 94.2683C153.522 94.3798 155.625 94.8336 155.625 97.0277C155.625 97.4228 155.57 98.3122 154.782 99.078C154.221 99.6169 153.303 100.152 151.585 100.152C151.255 100.152 149.88 100.136 148.818 99.4589C147.475 98.5978 147.345 97.125 147.298 96.7015L148.749 96.5172Z" fill="black"/>
<path d="M61.5432 51.0322L77.7306 17L94.0543 51.0322L107.907 19.1316L118.849 19.1075L93.9129 74.9045L77.7738 39.7393L61.3725 74.7924L37 19.1092H47.9635L61.5432 51.0322Z" fill="black"/>
</svg>
